<?xml version="1.0" encoding="utf-8"?>
<!-- Generator: Adobe Illustrator 25.3.1, SVG Export Plug-In . SVG Version: 6.00 Build 0)  -->
<svg version="1.1" id="Layer_1" xmlns="http://www.w3.org/2000/svg" xmlns:xlink="http://www.w3.org/1999/xlink" x="0px" y="0px"
	 viewBox="0 0 760 439" style="enable-background:new 0 0 760 439;" xml:space="preserve">
<style type="text/css">
	.st0{fill-opacity:0.1;}
	.st1{fill:none;stroke:#000000;stroke-width:25;stroke-opacity:0.1;}
</style>
<g>
	<path class="st0" d="M147.1,114.1c0-14.5,5.2-27,15.6-37.3c10.4-10.4,22.8-15.6,37.3-15.6c14.5,0,27,5.2,37.3,15.6
		s15.6,22.8,15.6,37.3c0,14.5-5.2,27-15.6,37.3C227,161.8,214.5,167,200,167c-9.6,0-18.4-2.4-26.5-7.4c-8-4.7-14.5-11.1-19.4-19.1
		C149.4,132.7,147.1,123.9,147.1,114.1z M482.3,114.1c0-14.5,5.2-27,15.6-37.3s22.8-15.6,37.3-15.6c14.5,0,27,5.2,37.3,15.6
		s15.6,22.8,15.6,37.3c0,14.5-5.2,27-15.6,37.3c-10.4,10.4-22.8,15.6-37.3,15.6c-9.6,0-18.4-2.4-26.5-7.4
		c-8-4.7-14.5-11.1-19.4-19.1C484.6,132.7,482.3,123.9,482.3,114.1z"/>
	<path class="st0" d="M379.8,227.2c74.1,0,142.2,9.6,204.4,28.8c62.3,19.4,119.7,47,172,82.9v61.2c-19.4-14.1-43.3-27.3-71.7-39.7
		c-28.2-12.2-59.3-22.8-93.2-32c-33.7-9.2-68.6-16.5-104.7-21.8c-36.1-5.1-71.6-7.6-106.7-7.6c-46.7,0-94,4.5-142,13.5
		s-92.6,21.2-133.8,36.5c-41.2,15.3-74.7,32.3-100.6,51.2v-61.2c52.3-35.9,109.6-63.5,171.7-82.9
		C237.5,236.8,305.7,227.2,379.8,227.2z"/>
	<path class="st1" d="M58.8,38.5c102.4,15.2,166.3-10,185.5-24.5"/>
	<path class="st1" d="M664.8,38.3C562.1,53.4,498,28.4,478.8,14"/>
</g>
</svg>
